<?xml version="1.0" encoding="UTF-8" standalone="no"?><!DOCTYPE svg PUBLIC "-//W3C//DTD SVG 1.1//EN" "http://www.w3.org/Graphics/SVG/1.1/DTD/svg11.dtd"><svg width="100%" height="100%" viewBox="0 0 1000 1000" version="1.1" xmlns="http://www.w3.org/2000/svg" xmlns:xlink="http://www.w3.org/1999/xlink" xml:space="preserve" style="fill-rule:evenodd;clip-rule:evenodd;stroke-linejoin:round;stroke-miterlimit:1.41421;"><clipPath id="_clip1"><rect x="35.3" y="0" width="929.424" height="1000"/></clipPath><g clip-path="url(#_clip1)"><path d="M944.933,599.49c-13.667,70.541 -122.365,147.741 -247.21,162.703c-65.106,7.796 -129.193,14.962 -197.548,11.815c-111.778,-5.139 -199.979,-26.777 -199.979,-26.777c0,10.921 0.671,21.32 2.013,31.044c14.532,110.712 109.384,117.345 199.239,120.437c90.681,3.114 171.425,-22.44 171.425,-22.44l3.731,82.281c0,0 -63.431,34.185 -176.429,40.473c-62.309,3.437 -139.677,-1.573 -229.789,-25.511c-195.439,-51.916 -229.05,-260.996 -234.192,-473.143c-1.563,-62.987 -0.602,-122.381 -0.602,-172.056c0,-216.931 141.621,-280.516 141.621,-280.516c71.404,-32.914 193.941,-46.755 321.325,-47.8l3.13,0c127.384,1.045 249.996,14.886 321.4,47.8c0,0 141.621,63.585 141.621,280.516c0,0 1.771,160.052 -19.756,271.174" style="fill:#3088d4;fill-rule:nonzero;"/><path d="M317.404,415.756c0,38.85 -31.383,70.347 -70.1,70.347c-38.71,0 -70.088,-31.497 -70.088,-70.347c0,-38.851 31.378,-70.353 70.088,-70.353c38.717,0 70.1,31.502 70.1,70.353m252.702,0c0,38.85 -31.388,70.347 -70.099,70.347c-38.711,0 -70.094,-31.497 -70.094,-70.347c0,-38.851 31.383,-70.353 70.094,-70.353c38.711,0 70.099,31.502 70.099,70.353m252.699,0c0,38.85 -31.384,70.347 -70.094,70.347c-38.711,0 -70.094,-31.497 -70.094,-70.347c0,-38.851 31.383,-70.353 70.094,-70.353c38.71,0 70.094,31.502 70.094,70.353" style="fill:#fff;fill-rule:nonzero;"/></g></svg>